<svg width="137" height="44" viewBox="0 0 137 44" fill="none" xmlns="http://www.w3.org/2000/svg">
<mask id="mask0_126_33" style="mask-type:luminance" maskUnits="userSpaceOnUse" x="41" y="8" width="96" height="27">
<path d="M51.1669 8.53397H41.4248V14.6761L48.0697 21.3695L41.4248 28.0636V34.2188H51.2144C55.6753 34.2188 59.0593 33.0267 61.3656 30.6417C63.5217 28.4711 64.6001 25.3966 64.6001 21.4227C64.6001 17.4488 63.3843 14.4967 60.9573 12.111C58.528 9.72606 55.2663 8.53397 51.1677 8.53397H51.1669ZM55.9719 26.8123C54.8029 28.1108 53.1094 28.7608 50.8952 28.7608H48.0705V13.9911H50.6673C52.9434 13.9911 54.689 14.664 55.9032 16.0104C57.1168 17.3568 57.7243 19.1906 57.7243 21.5132C57.7243 23.8358 57.1394 25.5122 55.9719 26.8115V26.8123ZM107.525 9.29651H113.75V34.2469H107.525V23.9902H97.6262V34.2469H91.4001V9.29651H97.6262V19.069H107.525V9.29651ZM77.6409 8.53397C74.1339 8.53397 71.1167 9.75875 68.5953 12.2068C66.0038 14.7256 64.708 17.9141 64.708 21.7717C64.708 25.6293 65.8876 28.6331 68.2505 31.1275C70.6586 33.6911 73.823 34.9745 77.7443 34.9745C83.4768 34.9745 87.5233 32.0748 89.8862 26.277H83.316C83.0866 26.8769 82.8345 27.3855 82.5591 27.8006C81.7788 28.979 80.1856 29.5682 77.7775 29.5682C73.8562 29.5682 71.5869 27.6516 70.9665 23.816H90.6069V22.3951C90.6069 18.4904 89.4387 15.222 87.1007 12.5885C84.6684 9.88496 81.5154 8.53397 77.6394 8.53397H77.6409ZM71.1401 19.1381C72.1725 15.6957 74.3731 13.9737 77.745 13.9737C81.1169 13.9737 83.4073 15.6957 84.2118 19.1381H71.1409H71.1401ZM133.372 20.4557C131.748 19.3465 129.473 18.7922 126.548 18.7922H122.112V9.29651H115.954V34.2469H126.518C129.384 34.2469 131.632 33.7041 133.259 32.6184C135.232 31.3229 136.219 29.315 136.219 26.5887C136.219 23.8624 135.269 21.7945 133.372 20.4557ZM126.301 29.3956H122.111V23.6427H126.06C128.59 23.6427 129.854 24.6242 129.854 26.588C129.854 28.5517 128.67 29.3949 126.301 29.3949V29.3956Z" fill="white"/>
</mask>
<g mask="url(#mask0_126_33)">
<path d="M23.2289 21.371H207.126L153.26 -32.8845L23.2289 21.371Z" fill="url(#paint0_linear_126_33)"/>
<path d="M153.26 -109.625V-32.8845L23.2289 21.371L153.26 -109.625Z" fill="#F8EF71"/>
<path d="M153.157 152.324L23.1247 21.3285L153.157 75.5931V152.324Z" fill="url(#paint1_linear_126_33)"/>
<path d="M153.26 75.6357L207.126 21.371H23.2289L153.26 75.6357Z" fill="url(#paint2_linear_126_33)"/>
</g>
<path d="M37.0704 6.40826L21.7158 21.8758L28.0762 6.40826H37.0704Z" fill="#FDCE60"/>
<path d="M21.7158 21.8759H43.43L37.0704 15.4691L21.7158 21.8759Z" fill="#FFD360"/>
<path d="M37.0704 6.40826V15.4691L21.7158 21.8758L37.0704 6.40826Z" fill="#F6F197"/>
<path d="M28.0762 6.40827L21.7158 0V21.8759L28.0762 6.40827Z" fill="#FCFBE7"/>
<path d="M37.0704 37.3442L21.7158 21.8759L37.0704 28.2834V37.3442Z" fill="#F8EF71"/>
<path d="M21.7158 21.8759V43.7525L28.0762 37.3442L21.7158 21.8759Z" fill="#FCC65C"/>
<path d="M37.0704 37.3442H28.0762L21.7158 21.8759L37.0704 37.3442Z" fill="#772B1B"/>
<path d="M37.0704 28.2834L43.43 21.8759H21.7158L37.0704 28.2834Z" fill="#DB8F29"/>
<path d="M6.35962 37.3442L21.7157 21.8759L15.3553 37.3442H6.35962Z" fill="#772B1B"/>
<path d="M21.7158 21.8759H0L6.35964 28.2834L21.7158 21.8759Z" fill="#5A2B16"/>
<path d="M6.35962 37.3442V28.2834L21.7157 21.8759L6.35962 37.3442Z" fill="#1E0F0F"/>
<path d="M15.3554 37.3442L21.7158 43.7525V21.8759L15.3554 37.3442Z" fill="#5A2B16"/>
<path d="M6.35962 6.40826L21.7157 21.8758L6.35962 15.4691V6.40826Z" fill="#772B1B"/>
<path d="M21.7158 21.8759V0L15.3554 6.40827L21.7158 21.8759Z" fill="#1E0F0F"/>
<path d="M6.35962 6.40826H15.3553L21.7157 21.8758L6.35962 6.40826Z" fill="#F8EF71"/>
<path d="M6.35964 15.4691L0 21.8774L21.7158 21.8759L6.35964 15.4691Z" fill="#B77D39"/>
<defs>
<linearGradient id="paint0_linear_126_33" x1="42.6346" y1="-5.75672" x2="141.323" y2="-5.75672" gradientUnits="userSpaceOnUse">
<stop stop-color="#FFD360"/>
<stop offset="1" stop-color="#FCFBE7"/>
</linearGradient>
<linearGradient id="paint1_linear_126_33" x1="26.5366" y1="60.3452" x2="40.4442" y2="66.1472" gradientUnits="userSpaceOnUse">
<stop stop-color="#F8EF71"/>
<stop offset="1" stop-color="#DB8F29"/>
</linearGradient>
<linearGradient id="paint2_linear_126_33" x1="34.8433" y1="48.5034" x2="140.519" y2="48.5034" gradientUnits="userSpaceOnUse">
<stop stop-color="#DB8F29"/>
<stop offset="1" stop-color="#F8EF71"/>
</linearGradient>
</defs>
</svg>
